#!OML:ASF E:\motion texture\Top Level 1\Subject 1\Session 1\male.ASF
:FULLY-SPECIFIED
:DEGREES
356
root 15.1454 17.9174 7.28457 76.3913 -81.7021 -71.0008
lowerback 2.61821 -1.76608 4.62804
upperback -6.09295 -2.29307 -1.49534
thorax -8.12943 -1.52448 -3.94255
lowerneck -9.01936 -13.4631 -17.4214
upperneck -2.14131 -16.2997 6.70071
head 2.63286 -7.96189 3.62254
rclavicle 2.38542e-015 -1.11319e-014
rhumerus 42.4393 -76.0103 -30.673
rradius 57.1807
rwrist -10.8055
rhand -5.43507 -14.8636
rfingers 7.12502
rthumb 20.3753 -43.8147
lclavicle 2.38542e-015 -1.11319e-014
lhumerus -58.0293 16.575 48.6793
lradius 42.0477
lwrist -20.6106
lhand -10.2946 14.3928
lfingers 7.12502
lthumb 15.7 43.7759
rfemur -1.03089 -1.75966 26.1124
rtibia 42.9645
rfoot 5.34168 -7.13818
rtoes -1.10974
lfemur -23.1758 -6.42939 -7.92216
ltibia 22.9043
lfoot -3.92901 5.13678
ltoes -1.70964
357
root 15.0202 17.931 7.30911 73.3427 -81.5646 -68.0033
lowerback 2.67932 -1.77654 4.38376
upperback -6.16306 -2.32786 -1.56689
thorax -8.23589 -1.53372 -3.87467
lowerneck -8.87053 -13.5204 -17.4843
upperneck -2.07733 -16.3929 6.72726
head 2.64745 -8.00912 3.63457
rclavicle 1.64991e-014 2.38542e-014
rhumerus 46.6197 -76.3906 -35.1
rradius 56.9646
rwrist -10.5697
rhand -5.52325 -14.8698
rfingers 7.12502
rthumb 20.2906 -43.8299
lclavicle 1.64991e-014 2.38542e-014
lhumerus -57.9034 16.79 48.7902
lradius 41.7162
lwrist -20.8591
lhand -10.1857 14.2984
lfingers 7.12502
lthumb 15.8048 43.6732
rfemur -1.52059 -2.22335 25.9648
rtibia 43.9069
rfoot 6.2494 -7.39012
rtoes -0.300825
lfemur -22.8072 -6.72663 -8.14139
ltibia 23.0217
lfoot -4.20368 4.81624
ltoes -1.45622
358
root 14.8966 17.9447 7.33245 70.2644 -81.3891 -64.9733
lowerback 2.74261 -1.7893 4.14081
upperback -6.23189 -2.36604 -1.63537
thorax -8.34256 -1.54423 -3.80385
lowerneck -8.70589 -13.5797 -17.5511
upperneck -2.01783 -16.4916 6.75793
head 2.65965 -8.0592 3.64885
rclavicle 1.35174e-014 -9.54166e-015
rhumerus 51.1022 -76.6621 -39.842
rradius 56.798
rwrist -10.3405
rhand -5.62248 -14.8718
rfingers 7.12502
rthumb 20.1952 -43.8421
lclavicle 1.35174e-014 -9.54166e-015
lhumerus -57.7337 16.9889 48.9267
lradius 41.3961
lwrist -21.1066
lhand -10.089 14.2133
lfingers 7.12502
lthumb 15.898 43.5807
rfemur -2.02846 -2.70533 25.838
rtibia 44.8269
rfoot 7.06368 -7.66195
rtoes 0.478343
lfemur -22.4304 -7.01231 -8.34615
ltibia 23.1092
lfoot -4.49114 4.47702
ltoes -1.21975
359
root 14.7746 17.9583 7.35454 67.1988 -81.1728 -61.9533
lowerback 2.80599 -1.80385 3.90168
upperback -6.29802 -2.40678 -1.70081
thorax -8.44665 -1.55565 -3.7317
lowerneck -8.52746 -13.6412 -17.621
upperneck -1.96368 -16.596 6.79279
head 2.66945 -8.1121 3.66521
rclavicle 1.39149e-015 -9.54166e-015
rhumerus 55.825 -76.8128 -44.8375
rradius 56.6818
rwrist -10.117
rhand -5.73142 -14.8716
rfingers 7.12502
rthumb 20.0905 -43.8528
lclavicle 1.39149e-015 -9.54166e-015
lhumerus -57.5179 17.1697 49.0915
lradius 41.0896
lwrist -21.3501
lhand -10.0006 14.1324
lfingers 7.12502
lthumb 15.9831 43.493
rfemur -2.55295 -3.20445 25.734
rtibia 45.7199
rfoot 7.7785 -7.94956
rtoes 1.22334
lfemur -22.047 -7.28706 -8.5336
ltibia 23.1683
lfoot -4.7863 4.12069
ltoes -1.00215
360
root 14.6544 17.9719 7.37535 64.1829 -80.9158 -58.9806
lowerback 2.86864 -1.82021 3.66696
upperback -6.3605 -2.45002 -1.7636
thorax -8.54669 -1.56796 -3.659
lowerneck -8.33582 -13.7049 -17.6952
upperneck -1.91542 -16.7058 6.83349
head 2.67701 -8.16772 3.68429
rclavicle 5.96354e-015 -3.33958e-014
rhumerus 60.6839 -76.8302 -49.9802
rradius 56.6135
rwrist -9.90279
rhand -5.83307 -14.8633
rfingers 7.12502
rthumb 19.9928 -43.8547
lclavicle 5.96354e-015 -3.33958e-014
lhumerus -57.2544 17.3351 49.2844
lradius 40.7953
lwrist -21.5895
lhand -9.92379 14.0599
lfingers 7.12502
lthumb 16.057 43.4146
rfemur -3.09203 -3.71948 25.6519
rtibia 46.5817
rfoot 8.38847 -8.25034
rtoes 1.92124
lfemur -21.6566 -7.5512 -8.70414
ltibia 23.1974
lfoot -5.08377 3.74673
ltoes -0.816007
361
root 14.5359 17.9855 7.39488 61.2519 -80.6192 -56.0908
lowerback 2.93326 -1.83763 3.43667
upperback -6.4207 -2.49466 -1.82376
thorax -8.64561 -1.58073 -3.58578
lowerneck -8.13184 -13.7706 -17.773
upperneck -1.87021 -16.8206 6.87749
head 2.68302 -8.22594 3.70515
rclavicle 2.44505e-014 -2.38542e-014
rhumerus 65.5577 -76.7047 -55.149
rradius 56.5933
rwrist -9.69572
rhand -5.9383 -14.8522
rfingers 7.12502
rthumb 19.8917 -43.8542
lclavicle 2.44505e-014 -2.38542e-014
lhumerus -56.9446 17.4839 49.5058
lradius 40.5136
lwrist -21.8255
lhand -9.86023 13.9901
lfingers 7.12502
lthumb 16.1182 43.3398
rfemur -3.64422 -4.24799 25.5911
rtibia 47.4082
rfoot 8.89131 -8.56259
rtoes 2.57199
lfemur -21.2599 -7.80499 -8.8578
ltibia 23.1972
lfoot -5.38043 3.35682
ltoes -0.653921
